<?xml version="1.0" standalone="no"?>
<!DOCTYPE svg PUBLIC "-//W3C//DTD SVG 20010904//EN"
 "http://www.w3.org/TR/2001/REC-SVG-20010904/DTD/svg10.dtd">
<svg version="1.0" xmlns="http://www.w3.org/2000/svg"
 width="640.000000pt" height="1280.000000pt" viewBox="0 0 640.000000 1280.000000"
 preserveAspectRatio="xMidYMid meet">
<metadata>
Created by potrace 1.15, written by Peter Selinger 2001-2017
</metadata>
<g transform="translate(0.000000,1280.000000) scale(0.100000,-0.100000)"
fill="rgb(255,0,0)" stroke="param(outline) #000" stroke-width="param(outline-width) 1">
<path d="M3031 12394 c-622 -1236 -1432 -2857 -1428 -2860 2 -2 722 -3 1599
-2 l1596 3 -420 875 c-230 481 -579 1210 -775 1620 -196 410 -360 749 -364
754 -4 5 -98 -171 -208 -390z"/>
<path d="M3010 8410 l0 -780 -934 0 c-514 0 -937 -4 -940 -8 -5 -9 -16 -169
-86 -1242 -17 -256 -39 -600 -50 -765 -11 -165 -33 -508 -50 -762 -16 -255
-43 -670 -60 -923 -16 -253 -44 -668 -60 -922 -17 -255 -39 -598 -50 -763 -11
-165 -27 -410 -35 -545 -8 -135 -18 -269 -21 -297 l-5 -53 -360 0 -359 0 0
-250 0 -250 1063 0 1062 0 19 -67 c24 -82 92 -223 147 -304 156 -230 423 -404
704 -460 90 -18 320 -18 410 0 281 56 548 230 704 460 55 81 123 222 147 304
l19 67 1062 0 1063 0 0 250 0 250 -359 0 -360 0 -5 53 c-3 28 -10 120 -16 202
-11 160 -77 1104 -110 1575 -11 157 -31 447 -45 645 -14 198 -34 486 -45 640
-32 457 -77 1099 -120 1708 -32 463 -59 840 -80 1145 -11 158 -22 293 -25 300
-3 9 -197 12 -925 12 l-920 0 0 780 0 780 -190 0 -190 0 0 -780z m325 -6655
c39 -8 112 -36 164 -61 155 -77 268 -206 328 -376 35 -97 43 -260 19 -363 -56
-238 -255 -438 -496 -496 -71 -17 -229 -17 -300 0 -188 46 -359 182 -444 355
-52 105 -69 190 -64 321 8 181 64 310 194 441 153 155 384 224 599 179z"/>
</g>
</svg>
