<?xml version="1.0" standalone="no"?>
<!DOCTYPE svg PUBLIC "-//W3C//DTD SVG 20010904//EN"
 "http://www.w3.org/TR/2001/REC-SVG-20010904/DTD/svg10.dtd">
<svg version="1.0" xmlns="http://www.w3.org/2000/svg"
 width="1280.000000pt" height="960.000000pt" viewBox="0 0 1280.000000 960.000000"
 preserveAspectRatio="xMidYMid meet">
<metadata>
Created by potrace 1.15, written by Peter Selinger 2001-2017
</metadata>
<g transform="translate(0.000000,960.000000) scale(0.100000,-0.100000)"
fill="#000000" stroke="none">
<path d="M5535 9109 c-468 -270 -862 -503 -877 -519 -51 -56 -31 -147 39 -176
27 -12 313 -14 1691 -14 913 0 1674 3 1691 6 18 4 45 20 62 36 40 41 41 104 2
148 -29 30 -1722 1010 -1745 1009 -7 0 -395 -220 -863 -490z"/>
<path d="M0 7834 l0 -1046 43 6 c38 5 4444 494 5107 566 151 17 290 33 309 36
l33 5 -7 432 c-4 238 -9 433 -10 435 -2 2 -220 28 -486 57 -266 30 -927 104
-1469 165 -1463 164 -1992 223 -2588 290 -295 33 -615 69 -710 80 -95 11 -184
20 -197 20 l-25 0 0 -1046z"/>
<path d="M10018 8577 l-2698 -301 0 -438 c0 -423 1 -438 19 -438 10 0 178 -18
372 -40 195 -22 676 -76 1069 -120 393 -44 1239 -138 1880 -210 641 -72 1365
-153 1610 -180 245 -27 464 -52 488 -55 l42 -6 0 1045 0 1046 -42 -1 c-24 -1
-1257 -137 -2740 -302z"/>
<path d="M4611 7249 c-70 -28 -114 -90 -113 -160 1 -75 58 -139 142 -158 25
-6 99 -11 165 -11 l121 0 -552 -3422 c-304 -1883 -555 -3440 -558 -3460 l-6
-38 2590 0 2590 0 -6 38 c-3 20 -254 1576 -558 3457 l-551 3420 145 6 c155 6
167 9 218 46 89 66 84 198 -11 261 l-41 27 -1775 2 c-1100 1 -1785 -2 -1800
-8z"/>
</g>
</svg>
